# xmcd
#
# Track frame offsets:
#	150
#	35777
#	68406
#	75024
#	104657
#	115399
#	150633
#	193058
#	211605
#	232955
#	237247
#	256626
#	295078
#
# Disc length: 4626 seconds
#
# Revision: 2
# Processed by: cddbd v1.5.2PL0 Copyright (c) Steve Scherf et al.
# Submitted via: audiograbber 1.83.01
#
DISCID=a112100d
DTITLE=Grateful Dead - 69-09-29 Cafe au Go-Go, New York NY
DYEAR=1900
DGENRE=
TTITLE0=Doing That Rag
TTITLE1=The Seven
TTITLE2=Good Lovin
TTITLE3=Drums
TTITLE4=Good Lovin
TTITLE5=St Stephen
TTITLE6=The Eleven
TTITLE7=China Cat Sunflower
TTITLE8=I Know You Rider
TTITLE9="Merry Go Round Broke Down" Tuning > "Take Me Out To The Ballgame" Tuni
TTITLE9=ng
TTITLE10=Alligator
TTITLE11=Drums
TTITLE12=The Other One
EXTD=
EXTT0=
EXTT1=
EXTT2=
EXTT3=
EXTT4=
EXTT5=
EXTT6=
EXTT7=
EXTT8=
EXTT9=
EXTT10=
EXTT11=
EXTT12=
PLAYORDER=
